<svg width="14" height="14" viewBox="0 0 14 14" fill="none" xmlns="http://www.w3.org/2000/svg">
<path d="M13.3274 6.33203H3.04241L9.19826 0.988281C9.2967 0.902148 9.23694 0.742188 9.10686 0.742188H7.55119C7.48264 0.742188 7.4176 0.766797 7.36662 0.810742L0.723851 6.57461C0.663011 6.62735 0.614218 6.69255 0.580777 6.76579C0.547336 6.83903 0.530029 6.91861 0.530029 6.99912C0.530029 7.07964 0.547336 7.15921 0.580777 7.23245C0.614218 7.3057 0.663011 7.37089 0.723851 7.42363L7.4053 13.2227C7.43166 13.2455 7.4633 13.2578 7.4967 13.2578H9.1051C9.23518 13.2578 9.29494 13.0961 9.19651 13.0117L3.04241 7.66797H13.3274C13.4047 7.66797 13.468 7.60469 13.468 7.52734V6.47266C13.468 6.39531 13.4047 6.33203 13.3274 6.33203Z" fill="black" fill-opacity="0.88"/>
</svg>
